<svg xmlns="http://www.w3.org/2000/svg" width="435.56" height="135.13" version="1.1" xml:space="preserve"><defs><linearGradient id="XMLID_2_" x1=".5" x2=".5" y1="1" y2=".001"><stop offset="0" stop-color="#FFF"/><stop offset=".333" stop-color="#FBFAFA"/><stop offset=".52" stop-color="#F1F0F0"/><stop offset=".67" stop-color="#E3E3E3"/><stop offset=".801" stop-color="#D1D1D2"/><stop offset=".918" stop-color="#BBBBBD"/><stop offset="1" stop-color="#A8AAAD"/></linearGradient><linearGradient id="XMLID_3_" x1=".5" x2=".5" y1="0" y2="1"><stop offset="0" stop-color="#FFF"/><stop offset=".333" stop-color="#FBFAFA"/><stop offset=".52" stop-color="#F1F0F0"/><stop offset=".67" stop-color="#E3E3E3"/><stop offset=".801" stop-color="#D1D1D2"/><stop offset=".918" stop-color="#BBBBBD"/><stop offset="1" stop-color="#A8AAAD"/></linearGradient><linearGradient id="XMLID_4_" x1=".599" x2=".4" y1=".334" y2=".664"><stop offset="0" stop-color="#FFF"/><stop offset=".312" stop-color="#FBFAFA"/><stop offset=".486" stop-color="#F1F0F0"/><stop offset=".626" stop-color="#E3E1E2"/><stop offset=".749" stop-color="#D0CFCF"/><stop offset=".86" stop-color="#B9B8BA"/><stop offset=".96" stop-color="#9FA0A2"/><stop offset="1" stop-color="#939598"/></linearGradient></defs><g><title>Layer 1</title><g id="Layer_1"><g id="XMLID_5_"><g id="XMLID_147_"><polyline id="XMLID_152_" fill="#FFE600" points="84.8 56.78 46.26 56.78 46.27 86.89 100.66 135.13 115.3 116.61 72.67 79.67 84.8 79.67 84.8 79.67 107.69 56.77 107.69 22.88 84.84 0 0 0 0 22.88 84.8 22.88 84.8 56.78" class="st0"/></g><polygon id="XMLID_75_" fill="url(#XMLID_2_)" points="107.69 22.89 107.69 29.97 84.81 29.97 84.81 22.89" class="st1"/><polygon id="XMLID_146_" fill="url(#XMLID_3_)" points="84.82 56.8 84.82 49.72 107.68 49.72 107.68 56.8" class="st2"/><polygon id="XMLID_142_" fill="url(#XMLID_4_)" points="46.28 56.83 55.64 56.82 84.05 79.58 72.47 79.6" class="st3"/></g><g id="XMLID_10_"><path id="XMLID_11_" d="m143.44,54.26l-2.95,0l-10.06,-11.02l-7.94,0l0,11.02l-2.24,0l0,-29.1c4.28,0 8.52,0 12.8,0c6.32,0 9.52,4.53 9.56,9.06c0.04,4.74 -3.08,8.9 -9.44,8.9l10.27,11.14zm-20.96,-13.14l10.31,0c5.07,0 7.32,-2.87 7.36,-6.94c0.04,-3.41 -2.29,-6.94 -7.11,-6.94l-10.56,0l0,13.88z"/><path id="XMLID_14_" d="m172.49,54.26l-3.2,-7.15l-17.38,0l-3.16,7.15l-2.41,0l13.05,-29.1l2.45,0l13.05,29.1l-2.4,0zm-4.07,-9.23l-7.82,-17.71l-7.82,17.71l15.64,0z"/><path id="XMLID_23_" d="m180.93,44.2l0,10.06l-2.25,0l0,-29.1c4.24,0 8.52,0 12.76,0c12.64,0 12.64,19.04 0,19.04l-10.51,0zm0,-16.96l0,14.93l10.52,0c9.69,0 9.69,-14.93 0,-14.93l-10.52,0z"/><path id="XMLID_110_" d="m205.58,54.26l0,-29.1l2.2,0l0,29.1l-2.2,0z"/><path id="XMLID_112_" d="m239.08,39.38c0.17,7.4 -4.57,14.88 -14.76,14.88c-3.28,0 -6.57,0 -9.85,0l0,-29.1c3.28,0 6.57,0 9.85,0c9.86,0 14.6,7.07 14.76,14.22zm-22.36,-12.1l0,24.82l7.61,0c8.65,0 12.64,-6.48 12.51,-12.72c-0.13,-6.07 -4.12,-12.1 -12.51,-12.1l-7.61,0z"/><path id="XMLID_115_" d="m269.01,54.26l-6.53,0l-8.48,-9.73l-5.28,0l0,9.73l-5.49,0l0,-29.14c4.62,0 9.23,0.04 13.84,0.04c6.86,0.04 10.48,4.61 10.48,9.64c0,3.99 -1.83,8.02 -7.36,9.15l8.81,9.94l0,0.37l0.01,0zm-20.28,-23.99l0,9.31l8.36,0c3.49,0 4.99,-2.33 4.99,-4.66c0,-2.33 -1.54,-4.66 -4.99,-4.66l-8.36,0l0,0.01z"/><path id="XMLID_118_" d="m293.25,48.77l-15.22,0l-2.49,5.49l-5.94,0l13.05,-29.1l5.99,0l13.05,29.1l-5.99,0l-2.45,-5.49zm-7.61,-17.5l-5.4,12.39l10.81,0l-5.41,-12.39z"/><path id="XMLID_129_" d="m307.42,30.15l-9.23,0l0,-4.99c8.4,0 15.51,0 23.95,0l0,4.99l-9.23,0l0,24.11l-5.49,0l0,-24.11z"/><path id="XMLID_131_" d="m325.17,54.26l0,-29.1l5.45,0l0,29.1l-5.45,0z"/><path id="XMLID_133_" d="m354.56,25.12l5.49,0l0,29.14l-3.41,0l0,0.04l-15.3,-19.66l0,19.62l-5.49,0l0,-29.1l4.45,0l14.26,18.04l0,-18.08z"/><path id="XMLID_153_" d="m387.19,32.27c-1.95,-1.87 -4.86,-2.91 -7.4,-2.91c-6.24,0 -10.02,4.74 -10.02,10.73c0,4.78 2.78,9.73 10.02,9.73c2.29,0 4.28,-0.5 6.57,-2.33l0,-5.16l-7.44,0l0,-4.91l12.47,0l0,12.26c-2.87,3.28 -6.48,5.24 -11.6,5.24c-10.93,0 -15.38,-7.19 -15.38,-14.84c0,-8.19 5.11,-15.76 15.38,-15.76c3.91,0 7.82,1.5 10.81,4.45l-3.41,3.5z"/><path id="XMLID_155_" d="m413.51,32.18c-1,-1.66 -3.74,-3.24 -6.9,-3.24c-4.07,0 -6.03,1.7 -6.03,3.87c0,2.54 2.99,3.24 6.49,3.66c6.07,0.75 11.72,2.33 11.72,9.27c0,6.49 -5.74,9.27 -12.22,9.27c-5.95,0 -10.52,-1.83 -12.68,-7.15l4.57,-2.37c1.29,3.2 4.66,4.62 8.19,4.62c3.45,0 6.69,-1.21 6.69,-4.37c0,-2.74 -2.87,-3.87 -6.73,-4.28c-5.95,-0.71 -11.43,-2.29 -11.43,-8.81c0,-5.99 5.9,-8.44 11.27,-8.48c4.53,0 9.23,1.29 11.43,5.78l-4.37,2.23z"/></g><text id="svg_1" class="st4 st5" font-family="'SourceSansPro-Regular'" font-size="26" transform="matrix(1 0 0 1 421.5869 42.8346)">®</text></g></g></svg>