<svg xmlns="http://www.w3.org/2000/svg" xmlns:svg="http://www.w3.org/2000/svg" id="圖層_1" width="39.097" height="19.102" x="0" y="0" version="1.1" viewBox="0 0 19.549 9.551" xml:space="preserve"><metadata id="metadata21"/><g id="g841" transform="scale(0.7261598)"><path style="fill:#c33837;stroke-width:.33724469" id="path2" d="M 22.291873,13.152542 H 1.1803564 C 0.53959149,13.152542 0,12.612951 0,11.972186 V 1.1803561 C 0,0.53959123 0.53959149,-2.6e-7 1.1803564,-2.6e-7 H 22.291873 c 0.404694,0 0.775663,0.20234681 0.97801,0.53959149 l 3.47362,5.39591487 c 0.236071,0.3709692 0.236071,0.8768362 0,1.2478053 l -3.47362,5.3959146 c -0.202347,0.370969 -0.573316,0.573316 -0.97801,0.573316 z"/><g id="g10" transform="matrix(0.48367364,0,0,0.48367364,-11.747588,-17.631595)"><path style="fill:#f5e169" id="path4" d="m 26.9,42.2 h 4.2 l 4.5,8.4 v -3.9 -4.5 h 3.9 v 15.6 h -4.2 l -4.5,-8.5 v 4 4.5 h -3.9 z"/><path style="fill:#f5e169" id="path6" d="m 43,42.2 h 10.1 v 3.5 h -6 v 2.4 h 5.1 v 3.5 h -5.1 v 2.8 h 6 v 3.5 H 43 Z"/><path style="fill:#f5e169" id="path8" d="m 54.9,42.2 h 3.5 c 0,0 1.4,10.2 1.5,11.8 l 2.4,-11.8 h 4 L 68.2,54 c 0.2,-1.6 1.4,-11.8 1.4,-11.8 h 3.6 l -2.3,15.6 h -5.2 c 0,0 -1.5,-8.7 -1.6,-9.8 H 64 c -0.2,1.2 -1.5,9.8 -1.5,9.8 h -5.1 z"/></g></g></svg>