<svg xmlns="http://www.w3.org/2000/svg" xmlns:svg="http://www.w3.org/2000/svg" id="svg5018" width="70mm" height="70mm" version="1.1" viewBox="0 0 70 70" xml:space="preserve"><g id="layer1" transform="translate(-26.423451,-154.64731)"><circle id="path5074-6" cx="61.423" cy="189.647" r="34.905" style="fill:#22d4c2;fill-opacity:1;stroke:#000;stroke-width:0;stroke-linejoin:bevel;paint-order:fill markers stroke;stroke-dasharray:none"/><text id="text5862-7" x="61.438" y="166.129" xml:space="preserve" style="font-weight:700;font-size:7.76111px;font-family:sans-serif;-inkscape-font-specification:'sans-serif Bold';letter-spacing:.0529167px;fill:#fff;fill-opacity:1;stroke:#fefefe;stroke-width:.1;stroke-linejoin:bevel;stroke-dasharray:none;stroke-opacity:1;paint-order:fill markers stroke"><tspan id="tspan4734" x="61.438" y="166.129" style="font-style:normal;font-variant:normal;font-weight:700;font-stretch:normal;font-size:7.76111px;font-family:'Bree Serif';-inkscape-font-specification:'Bree Serif Bold';text-align:center;text-anchor:middle;fill:#000;stroke:#fefefe;stroke-width:.1;stroke-dasharray:none;stroke-opacity:1">Happy</tspan><tspan id="tspan9967" x="61.464" y="176.089" style="font-style:normal;font-variant:normal;font-weight:700;font-stretch:normal;font-size:7.76111px;font-family:'Bree Serif';-inkscape-font-specification:'Bree Serif Bold';text-align:center;text-anchor:middle;fill:#000;stroke:#fefefe;stroke-width:.1;stroke-dasharray:none;stroke-opacity:1">to hug</tspan></text><path id="path4327" transform="scale(0.26458333)" style="fill:#143914;fill-opacity:1;stroke:#143914;stroke-width:.0286291;stroke-linejoin:bevel;stroke-opacity:1;paint-order:fill markers stroke"/><path id="path4331" transform="scale(0.26458333)" style="fill:#143914;fill-opacity:1;stroke:#143914;stroke-width:.0286291;stroke-linejoin:bevel;stroke-opacity:1;paint-order:fill markers stroke"/><g style="fill:#000;fill-opacity:1;stroke:#fff;stroke-width:.250724;stroke-dasharray:none;stroke-opacity:1" id="g4515" transform="matrix(0.82554008,0,0,0.82554008,-61.608106,14.025348)"><path id="path2391" d="m 144.99955,247.74233 c -8.32896,-5.66745 -16.71282,-12.5122 -16.71282,-13.64469 0,-0.40803 0.62904,-0.3454 3.84129,0.38246 10.1177,2.29257 21.07403,2.59312 30.87171,0.84688 6.29069,-1.1212 6.29742,-1.12177 6.29742,-0.53857 0,0.981 -4.66998,4.62954 -13.74045,10.73507 -7.36959,4.96064 -6.72644,4.82546 -10.55715,2.21885 z m -14.99674,-16.04328 c -0.0934,-0.15113 0.47301,-0.55375 1.28298,-0.91195 2.49401,-1.10297 2.11026,-1.50167 -0.89652,-0.93145 -0.97401,0.18472 -1.49521,0.18132 -1.68754,-0.011 -0.39462,-0.39462 0.29178,-0.77352 1.43709,-0.79329 2.84697,-0.0491 2.78856,-0.99559 -0.0686,-1.1107 -2.40464,-0.0969 -2.27538,-0.56897 0.20084,-0.7335 2.40717,-0.15995 2.67625,-0.58933 0.53679,-0.85658 -1.52135,-0.19003 -2.26965,-0.54147 -1.91278,-0.89833 0.0969,-0.0969 1.00489,-0.0394 2.0177,0.12788 3.76574,0.6219 4.13408,0.4146 3.05455,-1.71905 -1.15573,-2.28425 -0.30655,-2.59214 0.98762,-0.35809 1.45562,2.51276 1.46892,2.51763 6.78299,2.48378 6.74693,-0.043 12.49328,-1.09569 17.98802,-3.29536 2.15139,-0.86126 2.93876,-0.92308 5.93932,-0.46636 1.5334,0.2334 2.13307,0.2367 2.35681,0.013 0.43872,-0.43872 -0.20895,-1.11529 -1.07248,-1.12032 -1.53106,-0.009 -1.44525,-0.47599 0.1223,-0.66572 2.61195,-0.31615 2.92053,-1.42749 0.40687,-1.46533 l -1.22438,-0.0184 1.26958,-0.39019 c 1.31745,-0.40489 1.85553,-1.04443 1.21637,-1.4457 -0.2031,-0.12751 -0.60741,-0.15664 -0.89845,-0.0647 -2.02406,0.63916 -3.17166,0.52536 -1.34889,-0.13376 1.17158,-0.42365 1.68056,-1.01021 1.25011,-1.44066 -0.24293,-0.24292 -0.5986,-0.20604 -1.56306,0.16207 -4.20521,1.60504 -4.20703,1.60481 -3.74161,-0.47493 0.64986,-2.90387 -0.7281,-2.73849 -1.71667,0.20603 -1.24905,3.72041 -11.11244,5.2436 -17.61842,4.75361 -8.69949,-0.22384 -16.82065,-4.31254 -18.8173,-7.87076 -4.05972,-8.93745 14.02421,-14.52538 22.42801,-6.93024 1.70382,1.53987 1.869,1.53405 3.87532,-0.1365 7.45713,-6.20916 19.45846,-4.11088 23.46023,4.10172 3.72584,7.6463 1.62344,16.39186 -4.71234,19.60245 -4.95206,2.5094 -19.77285,3.10397 -29.64445,1.18927 -3.13443,-0.60796 -3.40399,-0.57452 -6.81639,0.84568 -2.7829,1.15821 -2.64805,1.12267 -2.87371,0.75754 z" style="fill:#000;fill-opacity:1;stroke:#fff;stroke-width:.250724;stroke-dasharray:none;stroke-opacity:1"/></g></g></svg>