<svg xmlns="http://www.w3.org/2000/svg" xmlns:svg="http://www.w3.org/2000/svg" id="svg5018" width="70mm" height="70mm" version="1.1" viewBox="0 0 70 70" xml:space="preserve"><g id="layer1" transform="translate(-25.136399,-149.6846)"><g id="g13094"><circle id="path5074-1" cx="60.136" cy="184.685" r="35" style="fill:#a00;fill-opacity:1;stroke:#000;stroke-width:0;stroke-linejoin:bevel;stroke-dasharray:none;paint-order:fill markers stroke"/><text id="text5862-7" x="41.594" y="164.285" xml:space="preserve" style="font-weight:700;font-size:7.76111px;font-family:sans-serif;-inkscape-font-specification:'sans-serif Bold';letter-spacing:.0291042px;fill:#fff;fill-opacity:1;stroke:#000;stroke-width:.264999;stroke-linejoin:bevel;stroke-opacity:1;paint-order:fill markers stroke"><tspan id="tspan5914-3" x="41.594" y="164.285" dx=".03" style="font-size:7.76111px;fill:#fff;stroke:#000;stroke-width:.265;stroke-opacity:1">I like my</tspan><tspan id="tspan5916-5" x="41.594" y="173.986" style="font-size:7.76111px;fill:#fff;stroke:#000;stroke-width:.265;stroke-opacity:1">distance</tspan></text><path id="path6263" d="m 47.405517,208.275 -5.308389,-5.31414 v -7.43692 -7.43692 l 5.216809,-5.2406 5.21681,-5.2406 h 7.690321 7.690295 l 5.21678,5.2406 5.21678,5.2406 v 7.44678 7.44678 l -5.28559,5.30429 -5.28558,5.30428 h -7.529915 -7.529941 z m 24.388325,-1.23153 4.699003,-4.6936 v -6.74702 -6.74701 l -4.825933,-4.83126 -4.825933,-4.83126 h -6.614621 -6.614631 l -4.83126,4.82596 -4.831254,4.82597 v 6.74687 6.74687 l 4.693594,4.69904 4.6936,4.69904 h 6.879221 6.879201 z m -15.93837,-0.69157 c -1.380015,-0.70442 -2.786175,-2.41102 -3.147725,-3.82023 -0.13843,-0.53958 -0.33418,-3.90544 -0.43499,-7.47968 -0.16632,-5.89637 -0.14191,-6.54001 0.26339,-6.94531 0.62458,-0.62458 1.62402,-0.55775 2.11369,0.14135 0.2972,0.42432 0.41922,1.28986 0.43825,3.10885 0.0145,1.38645 0.13151,2.81847 0.26002,3.18227 0.14299,0.40483 0.1819,-1.08361 0.10027,-3.83646 -0.1132,-3.8176 -0.0702,-4.58795 0.284155,-5.09322 0.461997,-0.65873 1.796811,-0.8224 2.157828,-0.26459 0.11773,0.1819 0.344197,2.41433 0.503257,4.96094 l 0.28921,4.63021 0.0415,-4.91037 c 0.0455,-5.37645 0.171627,-5.8714 1.496721,-5.8714 1.332151,0 1.455201,0.49088 1.455201,5.80525 0,2.66433 0.10036,4.84423 0.22303,4.84423 0.122667,0 0.301317,-1.98499 0.396997,-4.41108 0.140467,-3.56155 0.258277,-4.50424 0.611727,-4.89479 0.607374,-0.67116 1.584021,-0.60952 2.068938,0.13057 0.350547,0.53501 0.369117,1.41429 0.143857,6.81302 -0.142247,3.4093 -0.261097,6.47318 -0.264107,6.80861 -0.005,0.58142 0.0644,0.55982 1.492811,-0.46302 0.824047,-0.59009 1.768041,-1.0729 2.097758,-1.0729 1.097994,0 1.962568,1.38804 1.455151,2.33617 -0.306097,0.57194 -6.859401,5.42263 -8.550429,6.32894 -1.526684,0.81822 -3.862809,0.80659 -5.49653,-0.0274 z" style="fill:#fff;stroke:#000;stroke-width:.165;stroke-dasharray:none;stroke-opacity:1"/></g></g></svg>