<svg xmlns="http://www.w3.org/2000/svg" xmlns:i="&amp;ns_ai;" xmlns:svg="http://www.w3.org/2000/svg" id="Layer_1" width="812.3" height="124.1" x="0" y="0" version="1.1" viewBox="0 0 812.3 124.1" xml:space="preserve"><metadata id="metadata51"/><style id="style2" type="text/css">.st0,.st1{fill:#144257}.st1{opacity:.5}.st2{fill:url(#SVGID_1_)}.st3{fill:url(#SVGID_2_)}</style><switch id="switch44" transform="translate(0.3,0.1)"><g id="g42" i:extraneous="self"><path id="path4" d="M 268.2,37.9 V 27.6 c -11,0 -17.5,5.3 -21.6,11.8 V 27.6 h -22.8 v 10.3 h 10.6 V 82.7 H 223.8 213.2 V 27.6 h -24.7 v 10.3 h 11.4 v 38.3 c -5.7,4.9 -12.9,8.4 -20.9,8.4 -7.6,0 -10.3,-4.6 -10.3,-11.8 V 27.6 h -23.5 v 10.3 h 10.6 V 74 c 0,14 7.6,20.9 19.4,20.9 9.9,0 18.6,-3.8 25.4,-10.3 V 93 h 23.2 39.9 V 82.7 H 247.4 V 47.8 c 4.1,-5 11.3,-9.9 20.8,-9.9 z" class="st0" style="fill:#144257"/><polygon id="polygon6" points="11.1 10.1 11.1 82.7 -.3 82.7 -.3 93.3 72.6 93.3 72.6 72.4 62.4 72.4 62.4 82.7 24.4 82.7 24.4 48.5 62 48.5 62 37.9 24.4 37.9 24.4 10.1 62.4 10.1 62.4 20.8 72.6 20.8 72.6 -.1 -.3 -.1 -.3 10.1" class="st0" style="fill:#144257"/><path id="path8" d="m 115.5,26.1 c -8,0 -14.4,2.7 -19.7,6.1 V -0.1 H 82.9 v 93.4 h 12.9 v -6.1 c 5.3,4.2 12.2,7.6 19.7,7.6 18.2,0 28.5,-15.6 28.5,-35.7 0,-20.1 -10.2,-33 -28.5,-33 m -2.6,58.5 c -4.6,0 -11.8,-3 -17.1,-7.6 V 41.7 c 4.6,-3 10.3,-5.7 16.7,-5.7 12.9,0 18.2,10.3 18.2,23.2 0,12.9 -3.8,25.4 -17.8,25.4" class="st0" style="fill:#144257"/><rect id="rect10" width="10.3" height="10.3" x="72.6" y="-.1" class="st1" style="opacity:.5;fill:#144257"/><rect id="rect12" width="10.6" height="10.3" x="268.2" y="27.6" class="st1" style="opacity:.5;fill:#144257"/><path id="path14" d="m 314.9,27.6 v 10.3 h 10.3 L 307.4,88.8 292.2,37.9 h 10.3 V 27.6 H 279 V 37.9 L 296.5,93 h 9.9 l -3.4,9.5 c -3.4,9.5 -11.4,11.4 -20.9,11.4 h -3 V 124 h 3 c 16.7,0 27.3,-4.2 33.4,-20.5 l 23.2,-65.7 h 8.7 V 27.6 Z" class="st0" style="fill:#144257"/><linearGradient id="SVGID_1_" x1="398.041" x2="811.912" y1="48.522" y2="48.522" gradientUnits="userSpaceOnUse"><stop style="stop-color:#00bef0" id="stop16" offset=".001"/><stop style="stop-color:#33cbe3" id="stop18" offset=".602"/><stop style="stop-color:#50d2dc" id="stop20" offset="1"/></linearGradient><path id="path23" d="m 398,27.6 h 6.1 l 9.5,34.9 v 0 l 10.3,-34.9 h 6.8 L 441,62.5 v 0 l 9.5,-34.9 h 6.1 l -12.9,43.7 h -6.1 L 427,35.6 v 0 l -10.6,35.7 h -6.1 z m 63.8,-3 h 5.7 v 22 0 c 1.5,-3 5.3,-5.3 9.5,-5.3 5.7,0 10.6,3.4 10.6,11 v 19 H 482 V 53.8 c 0,-5.7 -3,-7.6 -6.8,-7.6 -4.6,0 -8.4,3 -8.4,9.9 v 15.2 h -5.7 V 24.6 Z m 34.6,20.9 c 3,-3 7.6,-4.2 11.8,-4.2 8.7,0 12.2,4.6 12.2,9.9 V 66 c 0,1.9 0,3.8 0.4,5.3 h -4.9 c 0,-1.5 0,-3 0,-4.6 v 0 c -2.7,3.8 -5.7,5.3 -10.3,5.3 -5.3,0 -10.3,-3 -10.3,-8.7 0,-7.6 7.2,-10.3 16.3,-10.3 h 4.2 v -1.1 c 0,-3 -2.3,-6.1 -6.8,-6.1 -4.2,0 -6.5,1.9 -8.4,3.4 z M 512,57.3 c -5.3,0 -11.8,0.8 -11.8,5.7 0,3.4 2.7,4.9 6.5,4.9 6.1,0 8.4,-4.6 8.4,-8.4 V 57.2 H 512 Z M 543.8,47 h -8 v 13.3 c 0,3.4 0,6.8 4.2,6.8 1.1,0 2.7,0 3.8,-0.8 v 4.9 c -1.1,0.8 -3.8,1.1 -4.9,1.1 -8.7,0 -8.7,-5.3 -8.7,-9.9 v -15 h -6.5 v -5.3 h 6.5 v -8.4 h 5.7 v 8.4 h 8 V 47 Z m 24.3,-22.4 h 5.7 v 21.6 0 c 1.9,-3 6.1,-4.9 10.3,-4.9 9.1,0 14.8,6.5 14.8,15.6 0,8.7 -5.7,15.6 -14.8,15.6 -3.8,0 -8,-1.9 -10.3,-4.9 v 0 4.2 h -5.7 z m 25.1,32.3 c 0,-6.1 -3.8,-10.3 -9.5,-10.3 -5.7,0 -9.5,4.2 -9.5,10.3 0,6.1 3.8,10.3 9.5,10.3 5.7,-0.1 9.5,-4.6 9.5,-10.3 z m 27,-15.6 c 8.7,0 15.6,6.8 15.6,15.6 0,8.8 -6.8,15.6 -15.6,15.6 -8.7,0 -15.6,-6.8 -15.6,-15.6 0,-8.8 6.8,-15.6 15.6,-15.6 z m 0,25.4 c 6.1,0 9.5,-4.2 9.5,-10.3 0,-6.1 -3.8,-10.3 -9.5,-10.3 -5.7,0 -9.5,4.2 -9.5,10.3 0,6.1 3.8,10.3 9.5,10.3 z m 22.7,-24.6 h 5.7 v 4.6 0 c 1.5,-3 5.3,-5.3 8.7,-5.3 0.8,0 1.9,0 2.7,0.4 l -0.4,6.1 c -0.8,-0.4 -1.9,-0.4 -2.7,-0.4 -5.3,0 -8.4,3 -8.4,9.5 v 14.8 h -5.7 V 42.1 Z m 50.9,29.2 h -5.7 v -4.2 0 c -2.3,3 -6.1,4.9 -10.3,4.9 -9.1,0 -14.8,-6.8 -14.8,-15.6 0,-8.8 5.7,-15.6 14.8,-15.6 4.2,0 8.4,1.9 10.3,4.9 v 0 -21.1 h 5.7 z m -5.3,-14.4 c 0,-6.1 -3.8,-10.3 -9.5,-10.3 -5.7,0 -9.5,4.2 -9.5,10.3 0,6.1 3.8,10.3 9.5,10.3 5.7,0 9.5,-4.6 9.5,-10.3 z m 18.2,1.9 c 0,5.3 4.9,8.4 9.9,8.4 3.4,0 5.7,-1.9 8,-4.6 l 4.2,3 c -3,4.2 -7.2,6.1 -12.9,6.1 -9.1,0 -15.2,-6.8 -15.2,-15.6 0,-8.8 6.5,-15.6 15.2,-15.6 10.3,0 14.4,8 14.4,15.6 V 58 h -23.5 v 0.8 z m 17.5,-4.6 c 0,-4.9 -2.7,-8.4 -8.4,-8.4 -5.7,0 -9.1,4.6 -9.1,8.4 z m 12.5,-12.1 h 5.7 v 4.6 0 c 1.5,-3 5.3,-5.3 8.7,-5.3 0.8,0 1.9,0 2.7,0.4 l -0.4,6.1 c -0.8,-0.4 -1.9,-0.4 -2.7,-0.4 -5.3,0 -8.4,3 -8.4,9.5 v 14.8 h -5.7 V 42.1 Z m 38.4,7.2 c -1.1,-1.5 -3,-3 -6.1,-3 -2.7,0 -4.9,1.1 -4.9,3.4 0,3.4 4.9,4.2 7.6,4.6 4.9,1.1 8.4,3 8.4,8.4 0,6.5 -6.1,9.1 -11.8,9.1 -4.9,0 -8.4,-1.1 -11.4,-5.3 L 761,63 c 1.9,1.9 3.8,3.4 7.2,3.4 2.7,0 6.1,-1.1 6.1,-3.8 0,-3.4 -4.6,-3.8 -7.2,-4.6 -4.9,-1.1 -9.1,-2.7 -9.1,-8.4 0,-6.1 5.7,-9.1 11,-9.1 3.8,0 8,1.5 9.9,4.9 z m 20.9,9.9 v -3.8 c 0,-4.6 1.1,-5.3 4.6,-8.4 2.7,-2.7 5.7,-4.9 5.7,-8.7 0,-3.8 -3,-6.5 -6.5,-6.5 -4.2,0 -6.8,2.7 -7.2,6.8 l -6.8,-0.8 c 1.1,-7.2 6.5,-11.4 13.7,-11.4 6.8,0 12.5,4.2 12.5,11.4 0,3 -1.8,6.3 -2.7,7.6 -0.8,1.2 -3.8,3.6 -4.6,4.2 -2.7,2.3 -3,3 -3,6.8 v 2.7 H 796 Z m 2.6,4.5 c 2.3,0 4.2,1.9 4.2,4.2 0,2.3 -1.9,4.2 -4.2,4.2 -2.3,0 -4.2,-1.9 -4.2,-4.2 0,-2.3 2.3,-4.2 4.2,-4.2 z" class="st2" style="fill:url(#SVGID_1_)"/><path id="path25" d="M 268.2,37.9 V 27.6 c -11,0 -17.5,5.3 -21.6,11.8 V 27.6 h -22.8 v 10.3 h 10.6 V 82.7 H 223.8 213.2 V 27.6 h -24.7 v 10.3 h 11.4 v 38.3 c -5.7,4.9 -12.9,8.4 -20.9,8.4 -7.6,0 -10.3,-4.6 -10.3,-11.8 V 27.6 h -23.5 v 10.3 h 10.6 V 74 c 0,14 7.6,20.9 19.4,20.9 9.9,0 18.6,-3.8 25.4,-10.3 V 93 h 23.2 39.9 V 82.7 H 247.4 V 47.8 c 4.1,-5 11.3,-9.9 20.8,-9.9 z" class="st0" style="fill:#144257"/><polygon id="polygon27" points="11.1 10.1 11.1 82.7 -.3 82.7 -.3 93.3 72.6 93.3 72.6 72.4 62.4 72.4 62.4 82.7 24.4 82.7 24.4 48.5 62 48.5 62 37.9 24.4 37.9 24.4 10.1 62.4 10.1 62.4 20.8 72.6 20.8 72.6 -.1 -.3 -.1 -.3 10.1" class="st0" style="fill:#144257"/><path id="path29" d="m 115.5,26.1 c -8,0 -14.4,2.7 -19.7,6.1 V -0.1 H 82.9 v 93.4 h 12.9 v -6.1 c 5.3,4.2 12.2,7.6 19.7,7.6 18.2,0 28.5,-15.6 28.5,-35.7 0,-20.1 -10.2,-33 -28.5,-33 m -2.6,58.5 c -4.6,0 -11.8,-3 -17.1,-7.6 V 41.7 c 4.6,-3 10.3,-5.7 16.7,-5.7 12.9,0 18.2,10.3 18.2,23.2 0,12.9 -3.8,25.4 -17.8,25.4" class="st0" style="fill:#144257"/><path id="path31" d="m 314.9,27.6 v 10.3 h 10.3 L 307.4,88.8 292.2,37.9 h 10.3 V 27.6 H 279 V 37.9 L 296.5,93 h 9.9 l -3.4,9.5 c -3.4,9.5 -11.4,11.4 -20.9,11.4 h -3 V 124 h 3 c 16.7,0 27.3,-4.2 33.4,-20.5 l 23.2,-65.7 h 8.7 V 27.6 Z" class="st0" style="fill:#144257"/><linearGradient id="SVGID_2_" x1="398.041" x2="811.912" y1="48.522" y2="48.522" gradientUnits="userSpaceOnUse"><stop style="stop-color:#00bef0" id="stop33" offset=".001"/><stop style="stop-color:#33cbe3" id="stop35" offset=".602"/><stop style="stop-color:#50d2dc" id="stop37" offset="1"/></linearGradient><path id="path40" d="m 398,27.6 h 6.1 l 9.5,34.9 v 0 l 10.3,-34.9 h 6.8 L 441,62.5 v 0 l 9.5,-34.9 h 6.1 l -12.9,43.7 h -6.1 L 427,35.6 v 0 l -10.6,35.7 h -6.1 z m 63.8,-3 h 5.7 v 22 0 c 1.5,-3 5.3,-5.3 9.5,-5.3 5.7,0 10.6,3.4 10.6,11 v 19 H 482 V 53.8 c 0,-5.7 -3,-7.6 -6.8,-7.6 -4.6,0 -8.4,3 -8.4,9.9 v 15.2 h -5.7 V 24.6 Z m 34.6,20.9 c 3,-3 7.6,-4.2 11.8,-4.2 8.7,0 12.2,4.6 12.2,9.9 V 66 c 0,1.9 0,3.8 0.4,5.3 h -4.9 c 0,-1.5 0,-3 0,-4.6 v 0 c -2.7,3.8 -5.7,5.3 -10.3,5.3 -5.3,0 -10.3,-3 -10.3,-8.7 0,-7.6 7.2,-10.3 16.3,-10.3 h 4.2 v -1.1 c 0,-3 -2.3,-6.1 -6.8,-6.1 -4.2,0 -6.5,1.9 -8.4,3.4 z M 512,57.3 c -5.3,0 -11.8,0.8 -11.8,5.7 0,3.4 2.7,4.9 6.5,4.9 6.1,0 8.4,-4.6 8.4,-8.4 V 57.2 H 512 Z M 543.8,47 h -8 v 13.3 c 0,3.4 0,6.8 4.2,6.8 1.1,0 2.7,0 3.8,-0.8 v 4.9 c -1.1,0.8 -3.8,1.1 -4.9,1.1 -8.7,0 -8.7,-5.3 -8.7,-9.9 v -15 h -6.5 v -5.3 h 6.5 v -8.4 h 5.7 v 8.4 h 8 V 47 Z m 24.3,-22.4 h 5.7 v 21.6 0 c 1.9,-3 6.1,-4.9 10.3,-4.9 9.1,0 14.8,6.5 14.8,15.6 0,8.7 -5.7,15.6 -14.8,15.6 -3.8,0 -8,-1.9 -10.3,-4.9 v 0 4.2 h -5.7 z m 25.1,32.3 c 0,-6.1 -3.8,-10.3 -9.5,-10.3 -5.7,0 -9.5,4.2 -9.5,10.3 0,6.1 3.8,10.3 9.5,10.3 5.7,-0.1 9.5,-4.6 9.5,-10.3 z m 27,-15.6 c 8.7,0 15.6,6.8 15.6,15.6 0,8.8 -6.8,15.6 -15.6,15.6 -8.7,0 -15.6,-6.8 -15.6,-15.6 0,-8.8 6.8,-15.6 15.6,-15.6 z m 0,25.4 c 6.1,0 9.5,-4.2 9.5,-10.3 0,-6.1 -3.8,-10.3 -9.5,-10.3 -5.7,0 -9.5,4.2 -9.5,10.3 0,6.1 3.8,10.3 9.5,10.3 z m 22.7,-24.6 h 5.7 v 4.6 0 c 1.5,-3 5.3,-5.3 8.7,-5.3 0.8,0 1.9,0 2.7,0.4 l -0.4,6.1 c -0.8,-0.4 -1.9,-0.4 -2.7,-0.4 -5.3,0 -8.4,3 -8.4,9.5 v 14.8 h -5.7 V 42.1 Z m 50.9,29.2 h -5.7 v -4.2 0 c -2.3,3 -6.1,4.9 -10.3,4.9 -9.1,0 -14.8,-6.8 -14.8,-15.6 0,-8.8 5.7,-15.6 14.8,-15.6 4.2,0 8.4,1.9 10.3,4.9 v 0 -21.1 h 5.7 z m -5.3,-14.4 c 0,-6.1 -3.8,-10.3 -9.5,-10.3 -5.7,0 -9.5,4.2 -9.5,10.3 0,6.1 3.8,10.3 9.5,10.3 5.7,0 9.5,-4.6 9.5,-10.3 z m 18.2,1.9 c 0,5.3 4.9,8.4 9.9,8.4 3.4,0 5.7,-1.9 8,-4.6 l 4.2,3 c -3,4.2 -7.2,6.1 -12.9,6.1 -9.1,0 -15.2,-6.8 -15.2,-15.6 0,-8.8 6.5,-15.6 15.2,-15.6 10.3,0 14.4,8 14.4,15.6 V 58 h -23.5 v 0.8 z m 17.5,-4.6 c 0,-4.9 -2.7,-8.4 -8.4,-8.4 -5.7,0 -9.1,4.6 -9.1,8.4 z m 12.5,-12.1 h 5.7 v 4.6 0 c 1.5,-3 5.3,-5.3 8.7,-5.3 0.8,0 1.9,0 2.7,0.4 l -0.4,6.1 c -0.8,-0.4 -1.9,-0.4 -2.7,-0.4 -5.3,0 -8.4,3 -8.4,9.5 v 14.8 h -5.7 V 42.1 Z m 38.4,7.2 c -1.1,-1.5 -3,-3 -6.1,-3 -2.7,0 -4.9,1.1 -4.9,3.4 0,3.4 4.9,4.2 7.6,4.6 4.9,1.1 8.4,3 8.4,8.4 0,6.5 -6.1,9.1 -11.8,9.1 -4.9,0 -8.4,-1.1 -11.4,-5.3 L 761,63 c 1.9,1.9 3.8,3.4 7.2,3.4 2.7,0 6.1,-1.1 6.1,-3.8 0,-3.4 -4.6,-3.8 -7.2,-4.6 -4.9,-1.1 -9.1,-2.7 -9.1,-8.4 0,-6.1 5.7,-9.1 11,-9.1 3.8,0 8,1.5 9.9,4.9 z m 20.9,9.9 v -3.8 c 0,-4.6 1.1,-5.3 4.6,-8.4 2.7,-2.7 5.7,-4.9 5.7,-8.7 0,-3.8 -3,-6.5 -6.5,-6.5 -4.2,0 -6.8,2.7 -7.2,6.8 l -6.8,-0.8 c 1.1,-7.2 6.5,-11.4 13.7,-11.4 6.8,0 12.5,4.2 12.5,11.4 0,3 -1.8,6.3 -2.7,7.6 -0.8,1.2 -3.8,3.6 -4.6,4.2 -2.7,2.3 -3,3 -3,6.8 v 2.7 H 796 Z m 2.6,4.5 c 2.3,0 4.2,1.9 4.2,4.2 0,2.3 -1.9,4.2 -4.2,4.2 -2.3,0 -4.2,-1.9 -4.2,-4.2 0,-2.3 2.3,-4.2 4.2,-4.2 z" class="st3" style="fill:url(#SVGID_2_)"/></g></switch></svg>