<svg xmlns="http://www.w3.org/2000/svg" xmlns:svg="http://www.w3.org/2000/svg" id="svg2" width="2410.429" height="655.209" version="1.1" viewBox="0 0 2410.429 655.209" xml:space="preserve"><metadata id="metadata8"/><defs id="defs6"><clipPath id="clipPath22" clipPathUnits="userSpaceOnUse"><path id="path20" d="M 0,1080 H 1920 V 0 H 0 Z"/></clipPath></defs><g id="g10" transform="matrix(1.3333333,0,0,-1.3333333,-52.905065,1105.4605)"><g id="g12" transform="translate(1537.6654,471.4354)"><path style="fill:#d74830;fill-opacity:1;fill-rule:nonzero;stroke:none" id="path14" d="M 0,0 92.808,212.076 185.328,0 Z M 130.961,357.66 H 105.408 L 79.853,299.268 -73.465,-51.091 h 383.3 z"/></g><g id="g16"><g id="g18" clip-path="url(#clipPath22)"><g id="g24" transform="translate(1304.6526,593.2)"><path style="fill:#231f20;fill-opacity:1;fill-rule:nonzero;stroke:none" id="path26" d="M 0,0 C 0,42.365 34.279,76.651 76.656,76.651 H 153.3 V 51.101 H 76.656 C 48.414,51.101 25.553,28.246 25.553,0 V -178.856 H 0.009 Z"/></g><g id="g28" transform="translate(231.5678,490.7169)"><path style="fill:#231f20;fill-opacity:1;fill-rule:nonzero;stroke:none" id="path30" d="m 0,0 c 0,-28.239 -22.854,-51.094 -51.097,-51.094 h -64.144 c -28.243,0 -51.098,22.855 -51.098,51.094 l 0.276,102.483 c 0,28.246 22.852,51.101 51.095,51.101 l 63.874,-0.004 c 28.243,0 51.098,-22.855 51.098,-51.097 z m 25.556,102.483 c 0,42.365 -34.282,76.651 -76.65,76.651 h -63.874 c -42.368,0 -76.654,-34.286 -76.654,-76.651 L -191.889,0 c 0,-42.365 34.283,-76.65 76.648,-76.65 h 64.144 c 42.371,0 76.656,34.285 76.656,76.65 z"/></g><g id="g32" transform="translate(474.2941,490.9914)"><path style="fill:#231f20;fill-opacity:1;fill-rule:nonzero;stroke:none" id="path34" d="M 0,0 C 0,-28.242 -22.852,-51.097 -51.096,-51.097 L -153.297,-51.1 v 204.41 l 102.201,-0.004 C -22.852,153.306 0,130.45 0,102.209 Z m 25.553,102.209 c 0,42.371 -34.28,76.651 -76.649,76.655 l -127.751,-0.004 v -332.163 h 25.55 v 76.656 h 102.201 c 42.369,0 76.653,34.282 76.655,76.647 z"/></g><g id="g36" transform="translate(576.4955,490.9914)"><path style="fill:#231f20;fill-opacity:1;fill-rule:nonzero;stroke:none" id="path38" d="m 0,0 c 0,-28.245 22.855,-51.1 51.1,-51.1 h 63.871 V -76.647 L 51.1,-76.656 c -42.368,0 -76.65,34.285 -76.65,76.656 v 153.31 h -25.552 v 25.55 h 25.552 v 51.096 H 0 V 178.86 H 94.931 L 83.433,153.31 H 0 Z"/></g><g id="g40" transform="translate(1087.4866,593.2)"><path style="fill:#231f20;fill-opacity:1;fill-rule:nonzero;stroke:none" id="path42" d="m 0,0 c 0,28.246 22.858,51.101 51.1,51.101 l 53.111,-0.057 -2.02,0.053 c 28.25,0 51.1,-22.855 51.1,-51.097 v -25.553 h -153.3 z m 153.291,-102.209 c 0,-28.244 -22.85,-51.1 -51.091,-51.1 H 51.1 c -28.251,0 -51.1,22.856 -51.1,51.1 l -0.009,51.1 H 178.847 V 0 c 0,42.365 -34.282,76.651 -76.656,76.651 H 51.1 C 8.726,76.651 -25.556,42.365 -25.556,0 v -102.209 c 0,-42.371 34.29,-76.655 76.656,-76.655 l 51.1,0.008 c 42.365,0 76.655,34.282 76.655,76.647 z"/></g><g id="g44" transform="translate(914.8803,448.7318)"><path style="fill:#231f20;fill-opacity:1;fill-rule:nonzero;stroke:none" id="path46" d="m 0,0 -102.198,227.12 h -25.547 L -12.775,-28.388 H 12.778 L 127.752,227.12 h -25.548 z"/></g><path style="fill:#231f20;fill-opacity:1;fill-rule:nonzero;stroke:none" id="path48" d="m 723.263,420.344 h 25.553 v 255.507 h -25.553 z"/><path style="fill:#231f20;fill-opacity:1;fill-rule:nonzero;stroke:none" id="path50" d="m 723.263,701.401 h 25.553 v 51.1 h -25.553 z"/></g></g></g></svg>