<svg xmlns="http://www.w3.org/2000/svg" xmlns:svg="http://www.w3.org/2000/svg" id="Layer_1" width="379.4" height="108.6" x="0" y="0" version="1.1" viewBox="0 0 379.4 108.6" xml:space="preserve"><metadata id="metadata48"/><style id="style2" type="text/css">.st0{fill-rule:evenodd;clip-rule:evenodd;fill:url(#SVGID_1_)}.st1{fill:#fff}.st2{fill:#112857}</style><g id="g41" transform="translate(-108.5,-108.5)"><linearGradient id="SVGID_1_" x1="108.507" x2="217.014" y1="162.761" y2="162.761" gradientUnits="userSpaceOnUse"><stop style="stop-color:#00d2f6" id="stop4" offset="0"/><stop style="stop-color:#1d96ff" id="stop6" offset="1"/></linearGradient><path id="path9" d="m 141,108.5 h 43.6 c 11.3,0 15.4,1.2 19.5,3.4 4.1,2.2 7.4,5.4 9.6,9.6 2.2,4.1 3.4,8.2 3.4,19.5 v 43.6 c 0,11.3 -1.2,15.4 -3.4,19.5 -2.2,4.1 -5.4,7.4 -9.6,9.6 -4.1,2.2 -8.2,3.4 -19.5,3.4 H 141 c -11.3,0 -15.4,-1.2 -19.5,-3.4 -4.1,-2.2 -7.4,-5.4 -9.6,-9.6 -2.2,-4.1 -3.4,-8.2 -3.4,-19.5 V 141 c 0,-11.3 1.2,-15.4 3.4,-19.5 2.2,-4.1 5.4,-7.4 9.6,-9.6 4.1,-2.2 8.2,-3.4 19.5,-3.4 z" class="st0" style="clip-rule:evenodd;fill:url(#SVGID_1_);fill-rule:evenodd"/><path id="path11" d="m 199.3,169.4 c 0,-8.6 -6.6,-15.8 -15,-16.7 -1.2,-4.3 -3.8,-8.3 -7.3,-11.2 -4,-3.3 -9.1,-5.2 -14.4,-5.2 -5.3,0 -10.3,1.8 -14.4,5.2 -3.5,2.9 -6,6.8 -7.3,11.2 -8.4,0.9 -15,8 -15,16.7 0,0 0,0 0,0 0,0.8 0.1,6.7 4.5,11.3 3.4,3.5 8.2,5.2 14.5,5.2 6,0 11.9,-1 17.6,-3.1 1.8,0.6 3.6,1.2 5.4,1.6 4,1 8.1,1.5 12.1,1.5 6.3,0 11.1,-1.8 14.5,-5.2 4.7,-4.6 4.8,-10.4 4.8,-11.3 0,0 0,0 0,0 z m -4.5,0 v 0 c 0,0 0.1,4.7 -3.3,8.1 -2.5,2.5 -6.2,3.8 -11.1,3.8 -8.4,0 -15.1,-2.3 -19.3,-4.2 -4,-1.8 -6.5,-3.6 -7.1,-4.1 -0.1,0 -0.1,-0.1 -0.1,-0.2 0,-0.1 0,-0.1 0,-0.2 V 163 c 0,-0.2 0.1,-0.3 0.3,-0.4 l 8.6,-4.4 c 0.1,-0.1 0.3,-0.1 0.4,0 l 8.6,4.4 c 0.2,0.1 0.3,0.2 0.3,0.4 v 9.6 c 0,0.1 -0.1,0.3 -0.1,0.3 -0.4,0.3 -1.9,1.4 -4.2,2.7 1.9,0.6 4.1,1.1 6.4,1.4 0.5,-0.4 0.8,-0.6 0.8,-0.6 v 0 c 0.8,-0.7 1.7,-2 1.7,-3.8 V 163 c 0,-1.9 -1.1,-3.6 -2.7,-4.5 l -8.6,-4.4 c -1.4,-0.7 -3.2,-0.7 -4.6,0 l -8.6,4.4 c -1.7,0.9 -2.7,2.6 -2.7,4.5 v 9.6 c 0,1.7 0.9,3.1 1.7,3.8 v 0 c 0.1,0.1 2,1.6 5.5,3.5 -3.7,0.9 -7.4,1.3 -11.2,1.3 -4.9,0 -8.7,-1.3 -11.1,-3.8 -3.3,-3.4 -3.3,-8 -3.3,-8.1 v 0 0 c 0,0 0,0 0,-0.1 0,-6.7 5.5,-12.2 12.2,-12.2 h 1.9 l 0.4,-1.9 c 0.8,-4 3,-7.7 6.1,-10.3 3.2,-2.7 7.3,-4.1 11.4,-4.1 4.1,0 8.2,1.5 11.4,4.1 3.2,2.6 5.3,6.3 6.1,10.3 l 0.4,1.9 h 1.9 c 6.4,0.2 11.9,5.6 11.9,12.4 0,0 0,0 0,0 z" class="st1" style="fill:#fff"/><g id="g15"><path id="path13" d="m 239.3,169.3 c 0.5,-0.4 1.2,-0.4 1.6,0.1 1.2,1.3 3.7,3.5 7.5,3.5 2.8,0 5.9,-1.2 5.9,-3.3 0,-2.4 -2,-3.5 -6.2,-4.3 -5.8,-1.2 -9.9,-3.5 -9.9,-8.6 0,-3.9 3.9,-7.8 10,-7.8 4.5,0 7.7,2.1 9.1,3.3 0.5,0.4 0.6,1.2 0.1,1.7 l -1.6,1.7 c -0.4,0.4 -1.1,0.5 -1.6,0.1 -1.1,-0.9 -3.2,-2.3 -6,-2.3 -3.5,0 -5.2,1.7 -5.2,3.5 0,2.1 2.1,3.2 6.6,4.1 5.2,1.1 9.6,3.1 9.6,8.6 0,5.2 -5.5,7.9 -10.8,7.9 -5.7,0 -9.4,-3.2 -10.9,-4.8 -0.4,-0.5 -0.4,-1.2 0.1,-1.6 z" class="st2" style="fill:#112857"/></g><path id="path17" d="m 289.9,163.2 c 0,-8.8 -5.6,-14.5 -13.2,-14.5 -8.2,0 -13.6,6.3 -13.6,14.3 0,8 5.9,14.3 14.2,14.3 5.4,0 9,-3 10.5,-4.5 0.4,-0.4 0.5,-1.2 0,-1.6 l -1.5,-1.5 c -0.4,-0.5 -1.2,-0.5 -1.7,0 -1.2,1.2 -3.7,3.1 -7.4,3.1 -5.1,0 -9,-3.8 -9.3,-7.9 h 21.9 c 0.1,-0.7 0.1,-1.2 0.1,-1.7 z M 268,160.7 c 0.4,-2.8 2.8,-7.3 8.6,-7.3 5.5,0 8.2,4.3 8.4,7.3 z" class="st2" style="fill:#112857"/><g id="g21"><path id="path19" d="m 318.7,159.2 v 16.3 c 0,0.6 -0.5,1.2 -1.2,1.2 H 315 c -0.6,0 -1.2,-0.5 -1.2,-1.2 V 160 c 0,-4.6 -2.9,-6.6 -6.5,-6.6 -4.4,0 -6.8,4.6 -6.8,4.6 v 17.5 c 0,0.6 -0.5,1.2 -1.2,1.2 h -2.6 c -0.6,0 -1.2,-0.5 -1.2,-1.2 v -24.8 c 0,-0.6 0.5,-1.2 1.2,-1.2 h 2.3 c 0.6,0 1.2,0.5 1.2,1.2 v 2.7 c 0,0 2.5,-4.5 8.3,-4.5 5.4,-0.1 10.2,3.6 10.2,10.3 z" class="st2" style="fill:#112857"/></g><path id="path23" d="m 350,135.9 h -2.6 c -0.6,0 -1.2,0.5 -1.2,1.2 v 15.8 c 0,0 -2.8,-4.1 -8.8,-4.1 -7.3,0 -13.2,6.3 -13.2,14.3 0,8 5.8,14.3 13.2,14.3 6.5,0 9.2,-4.6 9.2,-4.6 v 2.8 c 0,0.6 0.5,1.2 1.2,1.2 h 2.2 c 0.6,0 1.2,-0.5 1.2,-1.2 V 137 c 0,-0.6 -0.5,-1.1 -1.2,-1.1 z m -3.7,32.1 c 0,0 -2.6,4.7 -8,4.7 -5.5,0 -9,-4.3 -9,-9.7 0,-5.3 3.6,-9.7 9,-9.7 5.4,0 8,4.7 8,4.7 z" class="st2" style="fill:#112857"/><g id="g27"><path id="path25" d="m 381.7,172.9 c -1.4,1.4 -4.6,4.1 -9.5,4.3 -8,0.5 -14.7,-6.1 -14.8,-14.1 -0.1,-8 5.9,-14.4 14,-14.4 5,0 8.4,2.5 9.9,4 0.5,0.5 0.5,1.3 0,1.7 l -1.6,1.5 c -0.4,0.4 -1.1,0.4 -1.5,0 -1.1,-1 -3.4,-2.6 -6.7,-2.6 -5.5,0 -9,4.3 -9,9.7 0,5.3 3.6,9.7 9,9.7 3.6,0 6,-1.8 7.2,-3 0.5,-0.5 1.2,-0.5 1.7,0 l 1.5,1.6 c 0.3,0.5 0.3,1.2 -0.2,1.6 z" class="st2" style="fill:#112857"/></g><g id="g31"><path id="path29" d="m 388.6,135.9 h 2.6 c 0.6,0 1.2,0.5 1.2,1.2 v 38.4 c 0,0.6 -0.5,1.2 -1.2,1.2 h -2.6 c -0.6,0 -1.2,-0.5 -1.2,-1.2 V 137 c 0,-0.6 0.5,-1.1 1.2,-1.1 z" class="st2" style="fill:#112857"/></g><path id="path33" d="m 412.5,148.8 c -8,0 -14,6.3 -14,14.3 0,8 6,14.3 14,14.3 8,0 14,-6.3 14,-14.3 0,-8.1 -6,-14.3 -14,-14.3 z m 0,23.9 c -5.5,0 -9,-4.3 -9,-9.7 0,-5.3 3.6,-9.7 9,-9.7 5.5,0 9,4.3 9,9.7 0.1,5.4 -3.5,9.7 -9,9.7 z" class="st2" style="fill:#112857"/><g id="g37"><path id="path35" d="m 432.1,166.9 v -16.3 c 0,-0.6 0.5,-1.2 1.2,-1.2 h 2.6 c 0.6,0 1.2,0.5 1.2,1.2 v 15.5 c 0,4.6 2.9,6.6 6.5,6.6 4.6,0 6.8,-4.5 6.8,-4.5 v -17.6 c 0,-0.6 0.5,-1.2 1.2,-1.2 h 2.6 c 0.6,0 1.2,0.5 1.2,1.2 v 24.8 c 0,0.6 -0.5,1.2 -1.2,1.2 h -2.3 c -0.6,0 -1.2,-0.5 -1.2,-1.2 v -3 c 0,0 -2.5,4.9 -8.3,4.9 -5.4,0 -10.3,-3.7 -10.3,-10.4 z" class="st2" style="fill:#112857"/></g><path id="path39" d="m 486.7,135.9 h -2.6 c -0.6,0 -1.2,0.5 -1.2,1.2 v 15.8 c 0,0 -2.8,-4.1 -8.8,-4.1 -7.3,0 -13.2,6.3 -13.2,14.3 0,8 5.8,14.3 13.2,14.3 6.5,0 9.2,-4.6 9.2,-4.6 v 2.8 c 0,0.6 0.5,1.2 1.2,1.2 h 2.2 c 0.6,0 1.2,-0.5 1.2,-1.2 V 137 c 0,-0.6 -0.5,-1.1 -1.2,-1.1 z m -3.8,32.1 c 0,0 -2.6,4.7 -8,4.7 -5.5,0 -9,-4.3 -9,-9.7 0,-5.3 3.6,-9.7 9,-9.7 5.4,0 8,4.7 8,4.7 z" class="st2" style="fill:#112857"/></g></svg>